<svg width="25" height="25" viewBox="0 0 25 25" fill="none" xmlns="http://www.w3.org/2000/svg">
<g clip-path="url(#clip0_668_2390)">
<path d="M21.875 0H3.125C2.2962 0 1.50134 0.32924 0.915291 0.915291C0.32924 1.50134 0 2.2962 0 3.125L0 25H25V3.125C25 2.2962 24.6708 1.50134 24.0847 0.915291C23.4987 0.32924 22.7038 0 21.875 0V0ZM22.9167 3.125V5.20833H15.625V2.08333H21.875C22.1513 2.08333 22.4162 2.19308 22.6116 2.38843C22.8069 2.58378 22.9167 2.84873 22.9167 3.125ZM11.4583 2.08333H13.5417V8.33333H11.4583V2.08333ZM3.125 2.08333H9.375V5.20833H2.08333V3.125C2.08333 2.84873 2.19308 2.58378 2.38843 2.38843C2.58378 2.19308 2.84873 2.08333 3.125 2.08333ZM2.08333 22.9167V7.29167H9.375V10.4167H15.625V7.29167H22.9167V22.9167H2.08333ZM15.625 18.75H20.8333V20.8333H15.625V18.75Z" fill="#0BA42D"/>
</g>
<defs>
<clipPath id="clip0_668_2390">
<rect width="25" height="25" fill="white"/>
</clipPath>
</defs>
</svg>
