<svg width="25" height="25" viewBox="0 0 25 25" fill="none" xmlns="http://www.w3.org/2000/svg">
<g clip-path="url(#clip0_668_2386)">
<path d="M25 14.5827C25 13.7539 24.6708 12.959 24.0847 12.373C23.4987 11.7869 22.7038 11.4577 21.875 11.4577H19.7917V4.16602C19.7917 3.33721 19.4624 2.54236 18.8764 1.95631C18.2903 1.37026 17.4955 1.04102 16.6667 1.04102H3.125C2.2962 1.04102 1.50134 1.37026 0.915291 1.95631C0.32924 2.54236 0 3.33721 0 4.16602L0 19.791H2.12604C2.09924 19.9634 2.08497 20.1374 2.08333 20.3118C2.08333 21.2788 2.46745 22.2061 3.15117 22.8898C3.8349 23.5736 4.76223 23.9577 5.72917 23.9577C6.6961 23.9577 7.62343 23.5736 8.30716 22.8898C8.99089 22.2061 9.375 21.2788 9.375 20.3118C9.37337 20.1374 9.35909 19.9634 9.33229 19.791H15.6677C15.6409 19.9634 15.6266 20.1374 15.625 20.3118C15.625 21.2788 16.0091 22.2061 16.6928 22.8898C17.3766 23.5736 18.3039 23.9577 19.2708 23.9577C20.2378 23.9577 21.1651 23.5736 21.8488 22.8898C22.5326 22.2061 22.9167 21.2788 22.9167 20.3118C22.915 20.1374 22.9008 19.9634 22.874 19.791H25V14.5827ZM13.5417 13.541V17.7077H10.4167V7.29102H13.5417V13.541ZM2.08333 11.4577V7.29102H4.16667V11.4577H2.08333ZM6.25 7.29102H8.33333V11.4577H6.25V7.29102ZM15.625 7.29102H17.7083V11.4577H15.625V7.29102ZM3.125 3.12435H16.6667C16.9429 3.12435 17.2079 3.2341 17.4032 3.42945C17.5986 3.6248 17.7083 3.88975 17.7083 4.16602V5.20768H2.08333V4.16602C2.08333 3.88975 2.19308 3.6248 2.38843 3.42945C2.58378 3.2341 2.84873 3.12435 3.125 3.12435ZM2.08333 13.541H8.33333V17.7077H2.08333V13.541ZM7.29167 20.3118C7.29167 20.7262 7.12705 21.1237 6.83402 21.4167C6.541 21.7097 6.14357 21.8743 5.72917 21.8743C5.31477 21.8743 4.91734 21.7097 4.62431 21.4167C4.33129 21.1237 4.16667 20.7262 4.16667 20.3118C4.16712 20.1338 4.19995 19.9573 4.26354 19.791H7.19479C7.25839 19.9573 7.29121 20.1338 7.29167 20.3118ZM20.8333 20.3118C20.8333 20.7262 20.6687 21.1237 20.3757 21.4167C20.0827 21.7097 19.6852 21.8743 19.2708 21.8743C18.8564 21.8743 18.459 21.7097 18.166 21.4167C17.873 21.1237 17.7083 20.7262 17.7083 20.3118C17.7088 20.1338 17.7416 19.9573 17.8052 19.791H20.7365C20.8001 19.9573 20.8329 20.1338 20.8333 20.3118ZM22.9167 17.7077H15.625V13.541H21.875C22.1513 13.541 22.4162 13.6508 22.6116 13.8461C22.8069 14.0415 22.9167 14.3064 22.9167 14.5827V17.7077Z" fill="#0BA42D"/>
</g>
<defs>
<clipPath id="clip0_668_2386">
<rect width="25" height="25" fill="white"/>
</clipPath>
</defs>
</svg>
