<svg width="62" height="62" viewBox="0 0 62 62" fill="none" xmlns="http://www.w3.org/2000/svg">
<rect x="1.5" y="1.5" width="59" height="59" rx="8.5" fill="white"/>
<rect x="1.5" y="1.5" width="59" height="59" rx="8.5" stroke="#0D2612" stroke-width="3"/>
<g clip-path="url(#clip0_517_1640)">
<path d="M31.0004 47.7148L29.7374 46.8223C28.0749 45.6469 13.5004 35.0579 13.5004 25.3848C13.4061 22.6744 14.3886 20.037 16.2331 18.049C18.0777 16.0609 20.6343 14.884 23.3441 14.7754C24.8399 14.7901 26.3114 15.1548 27.6409 15.8403C28.9704 16.5258 30.1209 17.5131 31.0004 18.7231C31.8798 17.5131 33.0303 16.5258 34.3598 15.8403C35.6893 15.1548 37.1608 14.7901 38.6566 14.7754C41.3664 14.884 43.923 16.0609 45.7676 18.049C47.6121 20.037 48.5946 22.6744 48.5004 25.3848C48.5004 35.0579 33.9258 45.6469 32.2633 46.8223L31.0004 47.7148ZM23.3441 19.1504C21.7953 19.2601 20.3523 19.9764 19.3284 21.1436C18.3045 22.3109 17.7824 23.8349 17.8754 25.3848C17.8754 31.0956 26.4256 38.816 31.0004 42.3175C35.5751 38.8175 44.1254 31.0956 44.1254 25.3848C44.2183 23.8349 43.6962 22.3109 42.6723 21.1436C41.6484 19.9764 40.2054 19.2601 38.6566 19.1504C37.1078 19.2601 35.6648 19.9764 34.6409 21.1436C33.617 22.3109 33.0949 23.8349 33.1879 25.3848H28.8129C28.9058 23.8349 28.3837 22.3109 27.3598 21.1436C26.3359 19.9764 24.8929 19.2601 23.3441 19.1504Z" fill="#0D2612"/>
</g>
<defs>
<clipPath id="clip0_517_1640">
<rect width="35" height="35" fill="white" transform="translate(13.5 13.5)"/>
</clipPath>
</defs>
</svg>
