<svg width="182" height="19" viewBox="0 0 182 19" fill="none" xmlns="http://www.w3.org/2000/svg">
<path d="M6.58105 0.65625H18.9443C19.4912 0.675781 19.9404 0.880859 20.292 1.27148C20.6631 1.66211 20.8486 2.13086 20.8486 2.67773C20.751 3.84961 20.1162 4.48438 18.9443 4.58203H7.57715C6.83496 4.62109 6.21973 4.9043 5.73145 5.43164C5.24316 5.95898 4.88184 6.56445 4.64746 7.24805C4.43262 7.91211 4.3252 8.5957 4.3252 9.29883C4.3252 10.002 4.43262 10.6953 4.64746 11.3789C4.88184 12.043 5.24316 12.6387 5.73145 13.166C6.21973 13.6934 6.83496 13.9766 7.57715 14.0156H16.4834C16.835 13.9961 17.0205 13.8008 17.04 13.4297V11.7305C17.0205 11.3398 16.835 11.1445 16.4834 11.1445H8.9834C8.43652 11.1445 7.96777 10.959 7.57715 10.5879C7.20605 10.1973 7.02051 9.72852 7.02051 9.18164C7.02051 8.63477 7.20605 8.16602 7.57715 7.77539C7.96777 7.4043 8.43652 7.21875 8.9834 7.21875H19.0029C19.5498 7.21875 20.0186 7.4043 20.4092 7.77539C20.7607 8.14648 20.9463 8.5957 20.9658 9.12305V9.18164V16.0371C20.9463 16.5645 20.7607 17.0039 20.4092 17.3555C20.0381 17.7266 19.5889 17.9219 19.0615 17.9414H6.58105C5.21387 17.8633 4.08105 17.3457 3.18262 16.3887C2.30371 15.4121 1.66895 14.3086 1.27832 13.0781C0.907227 11.8477 0.72168 10.5879 0.72168 9.29883C0.72168 8.00977 0.916992 6.75 1.30762 5.51953C1.69824 4.28906 2.33301 3.19531 3.21191 2.23828C4.09082 1.26172 5.21387 0.734375 6.58105 0.65625ZM40.9756 16.3887V9.32812C40.9756 8.83984 40.7217 8.58594 40.2139 8.56641H29.96C29.5889 8.58594 29.2666 8.75195 28.9932 9.06445C28.7197 9.35742 28.5146 9.70898 28.3779 10.1191C28.2607 10.5098 28.2021 10.9102 28.2021 11.3203C28.2021 11.7109 28.2607 12.1113 28.3779 12.5215C28.5146 12.9121 28.7197 13.2637 28.9932 13.5762C29.2666 13.8691 29.5889 14.0156 29.96 14.0156H37.46C38.0068 14.0156 38.4658 14.2109 38.8369 14.6016C39.2275 14.9727 39.4229 15.4316 39.4229 15.9785C39.4229 16.5254 39.2275 16.9844 38.8369 17.3555C38.4658 17.7461 38.0068 17.9414 37.46 17.9414H30.0771C28.71 17.9219 27.5771 17.541 26.6787 16.7988C25.7998 16.0371 25.165 15.1875 24.7744 14.25C24.4033 13.293 24.2178 12.3066 24.2178 11.291C24.2178 10.3145 24.4131 9.35742 24.8037 8.41992C25.1943 7.46289 25.8291 6.61328 26.708 5.87109C27.5869 5.10938 28.8857 4.69922 30.6045 4.64062H42.9092C43.4561 4.64062 43.9248 4.82617 44.3154 5.19727C44.7061 5.54883 44.9111 5.99805 44.9307 6.54492V16.3887C44.9307 16.9355 44.7256 17.3945 44.3154 17.7656C43.9248 18.1172 43.4561 18.293 42.9092 18.293C41.7373 18.1953 41.0928 17.5605 40.9756 16.3887ZM54.9209 4.20117C55.6045 4.20117 56.2686 4.31836 56.9131 4.55273C57.5771 4.78711 58.2119 5.12891 58.8174 5.57812C58.915 5.67578 59.0225 5.77344 59.1396 5.87109C59.2373 5.77344 59.3447 5.67578 59.4619 5.57812C60.0674 5.12891 60.6924 4.78711 61.3369 4.55273C62.001 4.31836 62.665 4.20117 63.3291 4.20117C64.0127 4.20117 64.6768 4.31836 65.3213 4.55273C65.9854 4.78711 66.6104 5.13867 67.1963 5.60742C67.8018 6.05664 68.3291 6.66211 68.7783 7.42383C69.2471 8.18555 69.4814 9.09375 69.4814 10.1484V16.3887C69.3643 17.5605 68.7197 18.1953 67.5479 18.293C67.001 18.293 66.5225 18.1172 66.1123 17.7656C65.7217 17.3945 65.5264 16.9355 65.5264 16.3887V10.3828C65.5264 9.91406 65.4385 9.52344 65.2627 9.21094C65.0869 8.87891 64.8916 8.625 64.6768 8.44922C64.4619 8.25391 64.2373 8.11719 64.0029 8.03906C63.7686 7.94141 63.5342 7.89258 63.2998 7.89258C63.0654 7.89258 62.8311 7.94141 62.5967 8.03906C62.3818 8.11719 62.167 8.25391 61.9521 8.44922C61.7373 8.625 61.542 8.87891 61.3662 9.21094C61.1904 9.52344 61.0928 9.91406 61.0732 10.3828V16.3887C60.9561 17.5605 60.3115 18.1953 59.1396 18.293C58.5928 18.293 58.1143 18.1172 57.7041 17.7656C57.3135 17.3945 57.1182 16.9355 57.1182 16.3887V10.3828C57.1182 9.91406 57.0303 9.52344 56.8545 9.21094C56.6787 8.87891 56.4834 8.625 56.2686 8.44922C56.0537 8.25391 55.8291 8.11719 55.5947 8.03906C55.3604 7.94141 55.126 7.89258 54.8916 7.89258C54.6572 7.89258 54.4229 7.94141 54.1885 8.03906C53.9736 8.11719 53.7588 8.25391 53.5439 8.44922C53.3291 8.625 53.1338 8.87891 52.958 9.21094C52.7822 9.52344 52.6846 9.91406 52.665 10.3828V16.3887C52.5674 17.5605 51.9326 18.1953 50.7607 18.293C50.2139 18.293 49.7354 18.1172 49.3252 17.7656C48.9346 17.3945 48.7393 16.9355 48.7393 16.3887V10.1484C48.7783 9.09375 49.0225 8.18555 49.4717 7.42383C49.9209 6.66211 50.4482 6.05664 51.0537 5.60742C51.6592 5.13867 52.2842 4.78711 52.9287 4.55273C53.5928 4.31836 54.2568 4.20117 54.9209 4.20117ZM79.1201 17.9414C77.4014 17.8828 76.1025 17.4824 75.2236 16.7402C74.3447 15.9785 73.71 15.1289 73.3193 14.1914C72.9287 13.2344 72.7334 12.2676 72.7334 11.291C72.7334 10.2754 72.9189 9.29883 73.29 8.36133C73.6807 7.4043 74.3154 6.55469 75.1943 5.8125C76.0928 5.05078 77.2256 4.66016 78.5928 4.64062H89.7256C90.2725 4.64062 90.7314 4.82617 91.1025 5.19727C91.4932 5.54883 91.6885 5.97852 91.6885 6.48633C91.6885 7.01367 91.4932 7.46289 91.1025 7.83398C90.7314 8.18555 90.2725 8.36133 89.7256 8.36133H78.7686C78.3389 8.36133 77.958 8.50781 77.626 8.80078C77.3135 9.09375 77.0791 9.47461 76.9229 9.94336C76.7861 10.4121 76.7178 10.8711 76.7178 11.3203C76.7178 11.8086 76.7861 12.2871 76.9229 12.7559C77.0791 13.2246 77.3135 13.6055 77.626 13.8984C77.958 14.1719 78.3389 14.3184 78.7686 14.3379H89.7256C90.2725 14.3379 90.7314 14.5137 91.1025 14.8652C91.4932 15.2168 91.6885 15.6367 91.6885 16.125C91.6885 16.6328 91.4932 17.0625 91.1025 17.4141C90.7314 17.7656 90.2725 17.9414 89.7256 17.9414H79.1201ZM91.3369 11.2324C91.3369 11.6035 91.1709 11.9258 90.8389 12.1992C90.5459 12.4531 90.1748 12.5801 89.7256 12.5801H80.1455C79.6963 12.5801 79.3154 12.4531 79.0029 12.1992C78.6904 11.9258 78.5342 11.6035 78.5342 11.2324C78.5342 10.8809 78.6904 10.5684 79.0029 10.2949C79.3154 10.041 79.6963 9.91406 80.1455 9.91406H89.7256C90.1748 9.91406 90.5557 10.0508 90.8682 10.3242C91.1807 10.5781 91.3369 10.8809 91.3369 11.2324ZM100.624 0.65625H112.987C113.534 0.675781 113.983 0.880859 114.335 1.27148C114.706 1.66211 114.892 2.13086 114.892 2.67773C114.794 3.84961 114.159 4.48438 112.987 4.58203H101.62C100.878 4.62109 100.263 4.9043 99.7744 5.43164C99.2861 5.95898 98.9248 6.56445 98.6904 7.24805C98.4756 7.91211 98.3682 8.5957 98.3682 9.29883C98.3682 10.002 98.4756 10.6953 98.6904 11.3789C98.9248 12.043 99.2861 12.6387 99.7744 13.166C100.263 13.6934 100.878 13.9766 101.62 14.0156H110.526C110.878 13.9961 111.063 13.8008 111.083 13.4297V11.7305C111.063 11.3398 110.878 11.1445 110.526 11.1445H103.026C102.479 11.1445 102.011 10.959 101.62 10.5879C101.249 10.1973 101.063 9.72852 101.063 9.18164C101.063 8.63477 101.249 8.16602 101.62 7.77539C102.011 7.4043 102.479 7.21875 103.026 7.21875H113.046C113.593 7.21875 114.062 7.4043 114.452 7.77539C114.804 8.14648 114.989 8.5957 115.009 9.12305V9.18164V16.0371C114.989 16.5645 114.804 17.0039 114.452 17.3555C114.081 17.7266 113.632 17.9219 113.104 17.9414H100.624C99.2568 17.8633 98.124 17.3457 97.2256 16.3887C96.3467 15.4121 95.7119 14.3086 95.3213 13.0781C94.9502 11.8477 94.7646 10.5879 94.7646 9.29883C94.7646 8.00977 94.96 6.75 95.3506 5.51953C95.7412 4.28906 96.376 3.19531 97.2549 2.23828C98.1338 1.26172 99.2568 0.734375 100.624 0.65625ZM124.647 17.9414C122.929 17.8828 121.63 17.4824 120.751 16.7402C119.872 15.9785 119.237 15.1289 118.847 14.1914C118.456 13.2344 118.261 12.2676 118.261 11.291C118.261 10.2754 118.446 9.29883 118.817 8.36133C119.208 7.4043 119.843 6.55469 120.722 5.8125C121.62 5.05078 122.753 4.66016 124.12 4.64062H135.253C135.8 4.64062 136.259 4.82617 136.63 5.19727C137.021 5.54883 137.216 5.97852 137.216 6.48633C137.216 7.01367 137.021 7.46289 136.63 7.83398C136.259 8.18555 135.8 8.36133 135.253 8.36133H124.296C123.866 8.36133 123.485 8.50781 123.153 8.80078C122.841 9.09375 122.606 9.47461 122.45 9.94336C122.313 10.4121 122.245 10.8711 122.245 11.3203C122.245 11.8086 122.313 12.2871 122.45 12.7559C122.606 13.2246 122.841 13.6055 123.153 13.8984C123.485 14.1719 123.866 14.3184 124.296 14.3379H135.253C135.8 14.3379 136.259 14.5137 136.63 14.8652C137.021 15.2168 137.216 15.6367 137.216 16.125C137.216 16.6328 137.021 17.0625 136.63 17.4141C136.259 17.7656 135.8 17.9414 135.253 17.9414H124.647ZM136.864 11.2324C136.864 11.6035 136.698 11.9258 136.366 12.1992C136.073 12.4531 135.702 12.5801 135.253 12.5801H125.673C125.224 12.5801 124.843 12.4531 124.53 12.1992C124.218 11.9258 124.062 11.6035 124.062 11.2324C124.062 10.8809 124.218 10.5684 124.53 10.2949C124.843 10.041 125.224 9.91406 125.673 9.91406H135.253C135.702 9.91406 136.083 10.0508 136.396 10.3242C136.708 10.5781 136.864 10.8809 136.864 11.2324ZM146.591 17.9414C144.872 17.8828 143.573 17.4824 142.694 16.7402C141.815 15.9785 141.181 15.1289 140.79 14.1914C140.399 13.2344 140.204 12.2676 140.204 11.291C140.204 10.2754 140.39 9.29883 140.761 8.36133C141.151 7.4043 141.786 6.55469 142.665 5.8125C143.563 5.05078 144.696 4.66016 146.063 4.64062H157.196C157.743 4.64062 158.202 4.82617 158.573 5.19727C158.964 5.54883 159.159 5.97852 159.159 6.48633C159.159 7.01367 158.964 7.46289 158.573 7.83398C158.202 8.18555 157.743 8.36133 157.196 8.36133H146.239C145.81 8.36133 145.429 8.50781 145.097 8.80078C144.784 9.09375 144.55 9.47461 144.394 9.94336C144.257 10.4121 144.188 10.8711 144.188 11.3203C144.188 11.8086 144.257 12.2871 144.394 12.7559C144.55 13.2246 144.784 13.6055 145.097 13.8984C145.429 14.1719 145.81 14.3184 146.239 14.3379H157.196C157.743 14.3379 158.202 14.5137 158.573 14.8652C158.964 15.2168 159.159 15.6367 159.159 16.125C159.159 16.6328 158.964 17.0625 158.573 17.4141C158.202 17.7656 157.743 17.9414 157.196 17.9414H146.591ZM158.808 11.2324C158.808 11.6035 158.642 11.9258 158.31 12.1992C158.017 12.4531 157.646 12.5801 157.196 12.5801H147.616C147.167 12.5801 146.786 12.4531 146.474 12.1992C146.161 11.9258 146.005 11.6035 146.005 11.2324C146.005 10.8809 146.161 10.5684 146.474 10.2949C146.786 10.041 147.167 9.91406 147.616 9.91406H157.196C157.646 9.91406 158.026 10.0508 158.339 10.3242C158.651 10.5781 158.808 10.8809 158.808 11.2324ZM164.55 0.1875C165.077 0.207031 165.526 0.402344 165.897 0.773438C166.269 1.125 166.464 1.56445 166.483 2.0918V16.4473C166.366 17.6191 165.722 18.2539 164.55 18.3516C164.003 18.3516 163.524 18.1758 163.114 17.8242C162.724 17.4531 162.528 16.9941 162.528 16.4473V2.0918C162.548 1.54492 162.753 1.0957 163.144 0.744141C163.534 0.373047 164.003 0.1875 164.55 0.1875ZM168.271 8.36133C168.837 7.44336 169.921 6.76953 171.522 6.33984L179.052 4.31836C179.579 4.16211 180.077 4.21094 180.546 4.46484C181.034 4.69922 181.356 5.08008 181.513 5.60742C181.688 6.11523 181.649 6.61328 181.396 7.10156C181.161 7.57031 180.78 7.89258 180.253 8.06836L172.226 10.1484C171.659 10.3633 171.386 10.7344 171.405 11.2617C171.386 11.7891 171.659 12.1602 172.226 12.375L180.253 14.4551C180.78 14.6309 181.161 14.9629 181.396 15.4512C181.649 15.9199 181.688 16.4082 181.513 16.916C181.356 17.4434 181.034 17.8242 180.546 18.0586C180.077 18.3125 179.579 18.3613 179.052 18.2051L171.522 16.1836C169.901 15.7344 168.808 15.0508 168.241 14.1328C167.694 13.2148 167.421 12.2578 167.421 11.2617C167.421 10.2656 167.704 9.29883 168.271 8.36133Z" fill="white"/>
</svg>
