<svg width="18" height="18" viewBox="0 0 18 18" fill="none" xmlns="http://www.w3.org/2000/svg">
<path d="M8.58594 0.5C6.9048 0.5 5.26141 0.998516 3.86359 1.93251C2.46578 2.8665 1.37631 4.19402 0.732965 5.74719C0.0896204 7.30036 -0.0787079 9.00943 0.249266 10.6583C0.577241 12.3071 1.38679 13.8217 2.57553 15.0104C3.76428 16.1992 5.27884 17.0087 6.92767 17.3367C8.57651 17.6646 10.2856 17.4963 11.8388 16.853C13.3919 16.2096 14.7194 15.1202 15.6534 13.7223C16.5874 12.3245 17.0859 10.6811 17.0859 9C17.0835 6.74641 16.1872 4.58582 14.5937 2.99228C13.0001 1.39875 10.8395 0.502437 8.58594 0.5V0.5ZM14.9191 8.29167H12.4556C12.2949 6.44638 11.7422 4.65667 10.8342 3.04221C11.9318 3.45729 12.8937 4.16684 13.6143 5.09291C14.335 6.01899 14.7864 7.12576 14.9191 8.29167ZM6.94615 10.4167H10.2257C9.94682 11.9005 9.3905 13.3183 8.58594 14.5958C7.78126 13.3184 7.22493 11.9005 6.94615 10.4167ZM6.85265 8.29167C7.05103 6.55184 7.64384 4.88024 8.58594 3.40417C9.52816 4.88018 10.121 6.55182 10.3192 8.29167H6.85265ZM6.33769 3.04221C5.42973 4.65667 4.87694 6.44638 4.71632 8.29167H2.25273C2.38544 7.12576 2.83691 6.01899 3.55755 5.09291C4.27819 4.16684 5.24013 3.45729 6.33769 3.04221ZM2.37527 10.4167H4.78998C5.02832 12.0112 5.55264 13.5496 6.33769 14.9578C5.35462 14.5852 4.47866 13.9759 3.78747 13.1837C3.09628 12.3916 2.61121 11.4411 2.37527 10.4167ZM10.8342 14.9578C11.6196 13.5497 12.1439 12.0113 12.3819 10.4167H14.7966C14.5607 11.4411 14.0756 12.3916 13.3844 13.1837C12.6932 13.9759 11.8173 14.5852 10.8342 14.9578Z" fill="white"/>
</svg>
